<svg width="22" height="14" viewBox="0 0 22 14" fill="none" xmlns="http://www.w3.org/2000/svg">
<path d="M1.25002 2.66667H20.75C21.0373 2.66667 21.3129 2.55253 21.5161 2.34937C21.7192 2.1462 21.8334 1.87065 21.8334 1.58333C21.8334 1.29602 21.7192 1.02047 21.5161 0.817301C21.3129 0.614137 21.0373 0.5 20.75 0.5H1.25002C0.962702 0.5 0.687152 0.614137 0.483988 0.817301C0.280824 1.02047 0.166687 1.29602 0.166687 1.58333C0.166687 1.87065 0.280824 2.1462 0.483988 2.34937C0.687152 2.55253 0.962702 2.66667 1.25002 2.66667ZM20.75 11.3333H1.25002C0.962702 11.3333 0.687152 11.4475 0.483988 11.6506C0.280824 11.8538 0.166687 12.1293 0.166687 12.4167C0.166687 12.704 0.280824 12.9795 0.483988 13.1827C0.687152 13.3859 0.962702 13.5 1.25002 13.5H20.75C21.0373 13.5 21.3129 13.3859 21.5161 13.1827C21.7192 12.9795 21.8334 12.704 21.8334 12.4167C21.8334 12.1293 21.7192 11.8538 21.5161 11.6506C21.3129 11.4475 21.0373 11.3333 20.75 11.3333ZM20.75 5.91667H1.25002C0.962702 5.91667 0.687152 6.0308 0.483988 6.23397C0.280824 6.43713 0.166687 6.71268 0.166687 7C0.166687 7.28732 0.280824 7.56287 0.483988 7.76603C0.687152 7.9692 0.962702 8.08333 1.25002 8.08333H20.75C21.0373 8.08333 21.3129 7.9692 21.5161 7.76603C21.7192 7.56287 21.8334 7.28732 21.8334 7C21.8334 6.71268 21.7192 6.43713 21.5161 6.23397C21.3129 6.0308 21.0373 5.91667 20.75 5.91667Z" fill="white"/>
</svg>
